<svg data-v-0dd9719b="" version="1.0" xmlns="http://www.w3.org/2000/svg" xmlns:xlink="http://www.w3.org/1999/xlink" width="100%" height="100%" viewBox="0 0 340.000000 250.000000" preserveAspectRatio="xMidYMid meet" color-interpolation-filters="sRGB" style="margin: auto;"> <rect data-v-0dd9719b="" x="0" y="0" width="100%" height="100%" fill="#fff" fill-opacity="1" class="background"></rect> <rect data-v-0dd9719b="" x="0" y="0" width="100%" height="100%" fill="url(#watermark)" fill-opacity="1" class="watermarklayer"></rect> <g data-v-0dd9719b="" fill="#262261" class="icon-text-wrapper icon-svg-group iconsvg" transform="translate(48.791038513183594,96.44402122497559)"><g class="iconsvg-imagesvg" transform="translate(0,8.034173965454102)"><g><rect fill="#262261" fill-opacity="0" stroke-width="2" x="0" y="0" width="60" height="41.04360198651034" class="image-rect"></rect> <svg x="0" y="0" width="60" height="41.04360198651034" filtersec="colorsb1599095660" class="image-svg-svg primary" style="overflow: visible;"><svg xmlns="http://www.w3.org/2000/svg" viewBox="0 0 143.5399932861328 98.19000244140625"><defs><linearGradient id="aee894549-1a6b-4e34-8be0-2f0d12570d27" x1="90.08" y1="142.98" x2="90.08" y2="-231.73" gradientUnits="userSpaceOnUse"><stop offset="0" stop-color="#1b75bb"></stop><stop offset=".5" stop-color="#2b3866"></stop><stop offset="1" stop-color="#262261"></stop></linearGradient><linearGradient id="b6200d474-0bb8-47a3-b488-5e52ce337096" x1="53.47" y1="288.21" x2="53.47" y2="-229.89" gradientUnits="userSpaceOnUse"><stop offset="0" stop-color="#e2ebee"></stop><stop offset=".5" stop-color="#8cb0bd"></stop><stop offset="1" stop-color="#2b3866"></stop></linearGradient></defs><g><g><path fill="url(#aee894549-1a6b-4e34-8be0-2f0d12570d27)" d="M132.06 13.21L143.54 0h-21.53l-11.5 13.21L48.1 84.98 36.61 98.19h98.68V84.98H69.63l62.43-71.77z"></path><path fill="url(#b6200d474-0bb8-47a3-b488-5e52ce337096)" d="M106.94 0H8.25v13.21h65.67L11.49 84.98 0 98.19h21.53l11.49-13.21 62.43-71.77L106.94 0z"></path></g></g></svg></svg> <!----></g></g> <g transform="translate(67,0)"><g data-gra="path-name" fill-rule="" class="tp-name iconsvg-namesvg" transform="translate(0,0)"><g transform="scale(1)"><g><path d="M10.9 1.45L10.9 1.45Q12.44 3.69 12.61 3.74L12.61 3.74Q12.7 3.78 13.1 3.38L13.1 3.38Q13.62 2.81 16.83 0.83L16.83 0.83Q25.44-4.44 25.53-5.01L25.53-5.01Q25.53-5.32 23.51-4.75L23.51-4.75Q22.94-4.57 22.19-4.35L22.19-4.35Q17.49-2.9 17.31-2.86L17.31-2.86Q15.91-2.59 15.56-3.6L15.56-3.6Q15.34-4.31 15.38-9.01L15.38-9.01Q15.38-9.76 15.38-10.42L15.38-10.42Q15.38-11.21 15.38-12.57L15.38-12.57Q15.34-16.83 15.62-17.53 15.91-18.24 17.62-18.19L17.62-18.19Q18.19-18.19 18.54-18.19L18.54-18.19Q20.83-18.19 21.25-18 21.67-17.8 22.02-16.57L22.02-16.57Q25.8-4.31 37.05 1.76L37.05 1.76Q38.5 2.55 38.72 2.42L38.72 2.42Q38.85 2.37 39.11 1.8L39.11 1.8Q40.08-0.22 41.79-0.79L41.79-0.79Q42.58-1.05 42.54-1.23L42.54-1.23Q42.5-1.49 41.04-1.98L41.04-1.98Q28.34-6.46 23.38-16L23.38-16Q22.63-17.31 22.68-17.53L22.68-17.53Q22.76-18.06 25.58-18.15L25.58-18.15Q26.46-18.15 32.39-18.19L32.39-18.19Q39.68-18.24 40.8-18.28 41.92-18.33 42.14-18.68L42.14-18.68Q42.54-19.25 39.64-21.67L39.64-21.67Q38.19-22.81 37.84-22.81L37.84-22.81Q37.44-22.81 36.52-21.53L36.52-21.53Q36.17-21.01 36.12-20.96L36.12-20.96Q35.99-20.79 35.86-20.52L35.86-20.52Q35.42-19.82 34.8-19.64L34.8-19.64Q33.97-19.47 28.3-19.42L28.3-19.42Q26.59-19.42 25.58-19.42L25.58-19.42Q18.33-19.42 17.09-19.49 15.86-19.56 15.64-19.91L15.64-19.91Q15.6-19.95 15.6-20L15.6-20Q15.47-20.21 15.47-20.72 15.47-21.23 15.6-21.53L15.6-21.53Q15.78-21.88 16.13-22.08 16.48-22.28 17.75-22.81L17.75-22.81Q26.5-26.28 33.44-31.25L33.44-31.25Q35.2-32.48 35.77-32.48L35.77-32.48Q36.74-32.48 35.86-33.35L35.86-33.35Q35.24-34.01 33.4-35.42L33.4-35.42Q32.39-36.25 32.12-36.19 31.86-36.12 30.5-34.8L30.5-34.8Q24.92-29.18 17.45-24.3L17.45-24.3Q16.08-23.47 15.82-23.69L15.82-23.69Q15.34-24.04 15.38-28.13L15.38-28.13Q15.38-28.65 15.38-29.84L15.38-29.84Q15.42-33.71 15.51-34.45 15.6-35.2 16.13-35.51L16.13-35.51 16.17-35.55Q17.01-36.04 14.99-36.78L14.99-36.78Q13.97-37.13 12.13-37.62L12.13-37.62Q11.95-37.66 11.65-37.75L11.65-37.75Q10.9-37.97 10.79-37.77 10.68-37.57 10.85-36.12L10.85-36.12Q10.9-35.55 10.94-35.16L10.94-35.16Q11.12-33.4 11.16-26.92 11.21-20.43 11.03-20.08L11.03-20.08Q10.5-19.12 4.61-19.6L4.61-19.6Q4.35-19.6 4.02-19.64 3.69-19.69 3.47-19.71 3.25-19.73 3.16-19.73L3.16-19.73Q2.81-19.78 2.86-19.51 2.9-19.25 3.3-18.54L3.3-18.54Q3.69-17.8 3.89-17.73 4.09-17.67 5.41-17.93L5.41-17.93Q7.47-18.28 9.14-18.17 10.81-18.06 11.03-17.58L11.03-17.58Q11.16-17.27 11.16-10.42 11.16-3.56 11.03-3.12L11.03-3.12Q10.77-2.33 9.84-1.67L9.84-1.67Q9.27-1.27 9.38-0.94 9.49-0.62 10.9 1.45ZM57.74 3.56L57.74 3.56Q57.88 3.78 57.92 3.78L57.92 3.78Q58.32 3.78 61.92 3.03L61.92 3.03Q77.12-0.44 84.33-13.18L84.33-13.18Q85.3-14.94 85.83-14.94L85.83-14.94Q87.63-14.94 84.86-16.52L84.86-16.52Q83.85-17.09 82.62-17.89L82.62-17.89Q81.78-18.41 81.54-18.48 81.3-18.54 81.19-18.44 81.08-18.33 80.86-17.58L80.86-17.58Q78.62-10.68 72.88-5.38 67.15-0.09 58.93 2.68L58.93 2.68Q58.4 2.86 58.14 2.97 57.88 3.08 57.74 3.16 57.61 3.25 57.63 3.34 57.66 3.43 57.74 3.56ZM52.16 3.52L52.16 3.52Q54.45 4.61 55.42 2.29L55.42 2.29Q56.43-0.18 55.15-4.57L55.15-4.57Q54.67-6.24 54.56-6.97 54.45-7.69 54.82-9.62 55.2-11.56 56.07-14 56.95-16.44 58.89-21.84L58.89-21.84Q59.06-22.32 59.15-22.54L59.15-22.54Q62.05-30.5 61.92-30.59L61.92-30.59 61.88-30.63Q61.61-30.89 61.44-30.63L61.44-30.63Q61.08-30.19 58.97-25.71L58.97-25.71Q58.32-24.3 57.13-21.84L57.13-21.84Q52.16-11.34 51.24-10.11L51.24-10.11Q50.58-9.23 49.75-9.18L49.75-9.18Q49.7-9.18 49.57-9.18L49.57-9.18Q49.31-9.18 49.17-9.18L49.17-9.18Q48.03-9.14 48.03-8.7L48.03-8.7Q48.03-8.35 48.87-8.22L48.87-8.22Q50.49-8 50.93-6.37L50.93-6.37Q51.5-4.48 51.02 0.53L51.02 0.53Q50.76 2.9 52.16 3.52ZM70.49-10.02L70.49-10.02Q70.93-9.49 72.93-10.39 74.93-11.29 75.37-12.22L75.37-12.22Q75.72-13.01 75.76-14.35 75.81-15.69 75.85-23.91L75.85-23.91Q75.89-31.99 75.96-33.42 76.03-34.85 76.42-35.16L76.42-35.16Q76.55-35.24 76.6-35.29L76.6-35.29Q77.3-35.9 75.59-36.52L75.59-36.52Q74.71-36.83 72.99-37.27L72.99-37.27Q71.72-37.57 71.59-37.46 71.46-37.35 71.59-36.21L71.59-36.21Q71.89-33.57 71.94-24.39L71.94-24.39Q71.98-17.09 71.85-16.17L71.85-16.17Q71.63-14.9 70.71-14.72L70.71-14.72Q70.53-14.72 67.9-14.85L67.9-14.85Q65.92-14.94 65.87-14.85L65.87-14.85Q65.74-14.63 65.92-14.52 66.09-14.41 66.84-14.19L66.84-14.19Q68.47-13.8 69.3-12.94 70.14-12.08 70.36-10.55L70.36-10.55Q70.44-10.06 70.49-10.02ZM59.9-14.9L59.9-14.9Q60.12-14.81 60.38-14.99 60.64-15.16 61.44-16L61.44-16Q65.26-19.86 67.76-25.4L67.76-25.4Q68.73-27.47 69.02-27.93 69.3-28.39 69.79-28.61L69.79-28.61Q70.71-29 69.39-29.49L69.39-29.49Q69.04-29.62 68.47-29.79L68.47-29.79Q68.25-29.88 67.39-30.15 66.53-30.41 66.14-30.54L66.14-30.54Q64.78-31.03 64.58-30.98 64.38-30.94 64.29-29.97L64.29-29.97Q63.54-23.29 60.29-16.39L60.29-16.39Q59.63-14.99 59.9-14.9ZM84.81-19.38L84.81-19.38Q86.92-18.59 87.54-20.52L87.54-20.52Q88.2-22.54 86.7-25.18L86.7-25.18Q86.09-26.28 85.21-27.11L85.21-27.11Q82.97-29.22 80.11-30.41L80.11-30.41Q78.53-31.07 78.62-30.54L78.62-30.54Q78.66-30.32 79.01-29.88L79.01-29.88Q82.57-25.66 83.67-21.14L83.67-21.14Q83.94-20.13 84.11-19.86 84.29-19.6 84.81-19.38ZM52.69-20.43L52.69-20.43Q54.05-20.13 54.76-21.29 55.46-22.46 54.76-23.86L54.76-23.86Q53.61-26.15 49.57-26.89L49.57-26.89Q47.55-27.29 47.5-26.98L47.5-26.98Q47.46-26.76 48.12-26.1L48.12-26.1Q50.32-23.95 51.42-21.67L51.42-21.67Q51.77-21.01 51.99-20.79 52.21-20.57 52.69-20.43ZM56.6-30.15L56.6-30.15Q57.48-29.88 58.32-30.37 59.15-30.85 59.28-31.73L59.28-31.73Q59.59-33.62 57.83-35.07 56.07-36.52 52.95-37.05L52.95-37.05Q51.55-37.27 51.39-37.07 51.24-36.87 52.12-35.99L52.12-35.99Q54.54-33.49 55.59-31.29L55.59-31.29Q56.07-30.28 56.6-30.15ZM102.92 3.78L102.92 3.78Q104.02 4.09 105.42 3.38 106.83 2.68 106.83 1.8L106.83 1.8Q106.83 0.7 107.36 0.4L107.36 0.4Q107.67 0.22 115.6 0.22 123.53 0.22 123.84 0.4L123.84 0.4Q124.32 0.7 124.28 2.11L124.28 2.11Q124.28 3.21 124.63 3.43 124.98 3.65 126.21 3.38L126.21 3.38Q127.09 3.21 127.44 3.14 127.79 3.08 128.19 2.81 128.58 2.55 128.67 2.42 128.76 2.29 128.87 1.63 128.98 0.97 128.96 0.55 128.94 0.13 128.89-1.14L128.89-1.14Q128.72-6.37 128.83-7.65 128.94-8.92 129.73-9.4L129.73-9.4Q130.21-9.71 130.21-9.84L130.21-9.84Q130.21-10.24 128.43-11.69 126.65-13.14 126.12-13.14L126.12-13.14Q125.9-13.14 125.02-12.17L125.02-12.17Q124.85-12 124.76-11.87L124.76-11.87Q124.67-11.78 124.54-11.6L124.54-11.6Q124.1-11.07 123.31-10.99 122.52-10.9 118.08-10.9L118.08-10.9Q116.37-10.9 115.36-10.9L115.36-10.9Q107.18-10.9 106.74-11.07L106.74-11.07Q106.48-11.16 104.5-11.98 102.52-12.79 102.3-12.92L102.3-12.92Q101.78-13.1 102-14.99 102.22-16.88 102.79-17.18L102.79-17.18Q103.1-17.36 113.25-17.38 123.4-17.4 123.84-17.23L123.84-17.23Q124.41-17.01 124.54-15.91L124.54-15.91Q124.58-15.29 125.66-15.34 126.74-15.38 128.19-16.04L128.19-16.04Q128.8-16.3 128.89-16.59 128.98-16.88 128.89-18.81L128.89-18.81Q128.72-22.76 128.83-24.08 128.94-25.4 129.51-25.71L129.51-25.71Q130.12-26.06 130.28-26.24 130.43-26.41 130.36-26.59 130.3-26.76 129.9-27.16L129.9-27.16Q128.63-28.43 126.91-29.58L126.91-29.58Q126.43-29.84 126.17-29.79 125.9-29.75 125.51-29.31L125.51-29.31Q124.5-28.17 124.41-28.13L124.41-28.13Q123.71-27.6 120.15-27.55L120.15-27.55Q119.71-27.55 113.25-27.55L113.25-27.55Q112.06-27.55 110.04-27.55L110.04-27.55Q103.49-27.55 102.74-27.86L102.74-27.86Q102.17-28.08 102.22-29L102.22-29Q102.22-29.05 102.22-29.14L102.22-29.14Q102.26-29.53 102.26-29.79L102.26-29.79Q102.26-31.33 102.57-31.68 102.88-32.04 104.24-32.04L104.24-32.04Q110.79-32.04 122.56-33.44L122.56-33.44Q125.68-33.84 126.47-33.62L126.47-33.62Q127.66-33.27 128.06-33.66L128.06-33.66Q128.14-33.71 128.1-33.84L128.1-33.84Q128.01-34.01 126.32-35.79 124.63-37.57 124.45-37.71 124.28-37.84 122.61-37.31L122.61-37.31Q116.32-35.46 105.6-33.62L105.6-33.62Q103.32-33.22 102.66-33.27 102-33.31 100.02-34.06L100.02-34.06Q97.95-34.76 97.82-34.63L97.82-34.63Q97.73-34.54 97.82-33.93L97.82-33.93Q98.09-31.38 98.04-22.68L98.04-22.68Q98-14.72 97.69-11.91L97.69-11.91Q96.77-3.16 93.03 2.5L93.03 2.5Q92.55 3.25 92.77 3.47L92.77 3.47Q92.99 3.65 93.21 3.49 93.43 3.34 94.31 2.59L94.31 2.59Q98.79-1.41 100.94-8.61L100.94-8.61Q101.51-10.68 101.87-10.77L101.87-10.77Q102.08-10.81 102.22-10.24L102.22-10.24Q102.3-10.02 102.35-9.71L102.35-9.71Q102.57-8.39 102.59-4.66 102.61-0.92 102.44 1.71L102.44 1.71Q102.35 2.94 102.44 3.3 102.52 3.65 102.92 3.78ZM123.84-1.14L123.84-1.14Q123.53-0.97 115.58-0.99 107.62-1.01 107.36-1.19L107.36-1.19Q106.96-1.36 106.9-1.91 106.83-2.46 106.83-5.32L106.83-5.32Q106.83-5.89 106.79-6.77L106.79-6.77Q106.74-8.96 107.42-9.32 108.11-9.67 112.5-9.62L112.5-9.62Q114.43-9.62 115.62-9.62L115.62-9.62Q122.34-9.62 122.83-9.58L122.83-9.58Q124.15-9.4 124.37-8.53L124.37-8.53Q124.41-8.09 124.37-5.32L124.37-5.32Q124.37-2.46 124.3-1.91 124.23-1.36 123.84-1.14ZM124.01-18.85L124.01-18.85Q123.71-18.63 113.4-18.61 103.1-18.59 102.79-18.81L102.79-18.81Q102.39-18.98 102.33-19.49 102.26-20 102.26-22.46 102.26-24.92 102.33-25.42 102.39-25.93 102.79-26.15L102.79-26.15Q103.1-26.37 113.4-26.32 123.71-26.28 124.01-26.06L124.01-26.06Q124.63-25.71 124.63-22.46 124.63-19.2 124.01-18.85ZM144.23 3.56L144.23 3.56Q144.76 3.82 145.88 3.49 147 3.16 147.57 2.59L147.57 2.59Q147.79 2.37 147.79 2 147.79 1.63 147.7-0.62L147.7-0.62Q147.48-8.13 147.79-8.66L147.79-8.66Q148.18-9.54 148.84-8.7L148.84-8.7Q149.37-8 149.5-6.81L149.5-6.81Q149.59-6.02 149.7-5.91 149.81-5.8 150.38-5.93L150.38-5.93Q152.53-6.28 152.91-7.89 153.28-9.49 153.28-18.63L153.28-18.63Q153.28-19.73 153.28-21.53L153.28-21.53Q153.28-26.32 153.37-27.18 153.46-28.04 154.03-28.3L154.03-28.3Q154.16-28.39 154.25-28.43L154.25-28.43Q155.08-28.92 154.69-29.62 154.29-30.32 152.49-31.68L152.49-31.68Q151.61-32.3 151.33-32.28 151.04-32.26 150.51-31.46L150.51-31.46Q149.33-29.71 148.36-30.15L148.36-30.15Q147.7-30.45 147.74-32.72 147.79-34.98 148.49-35.55L148.49-35.55Q149.28-36.17 147.61-36.78L147.61-36.78Q146.78-37.09 145.06-37.53L145.06-37.53Q143.83-37.84 143.7-37.79 143.57-37.75 143.66-37L143.66-37Q144.32-31.68 143.7-30.65 143.09-29.62 140.05-30.98L140.05-30.98Q138.25-31.82 138.21-31.55L138.21-31.55Q138.16-31.51 138.21-31.33L138.21-31.33Q138.69-28.3 138.69-20.3L138.69-20.3Q138.69-14.24 138.3-6.77L138.3-6.77Q138.21-5.58 138.76-5.27 139.31-4.97 140.58-5.41L140.58-5.41Q141.81-5.84 142.05-6.33 142.29-6.81 142.21-8.61L142.21-8.61Q142.03-12.44 141.97-19.89 141.9-27.33 142.03-27.86L142.03-27.86Q142.21-28.74 143.04-28.74 143.88-28.74 144.1-27.86L144.1-27.86Q144.27-27.03 144.18-15.36 144.1-3.69 143.88-0.13L143.88-0.13Q143.7 2.37 143.75 2.86 143.79 3.34 144.23 3.56ZM149.41-10.2L149.41-10.2Q148.93-9.89 148.45-10.04 147.96-10.2 147.74-10.68L147.74-10.68Q147.61-10.99 147.61-19.38 147.61-27.77 147.74-28.13L147.74-28.13Q147.96-28.7 148.67-28.74 149.37-28.78 149.81-28.21L149.81-28.21Q149.99-27.99 149.99-19.42L149.99-19.42Q149.99-11.03 149.81-10.55L149.81-10.55Q149.72-10.42 149.41-10.2ZM150.21 3.52L150.21 3.52Q150.73 4.04 153.9 0.83L153.9 0.83Q157.15-2.5 158.42-6.81 159.7-11.12 159.79-19.03L159.79-19.03Q159.87-23.29 160.18-23.55L160.18-23.55Q160.4-23.69 160.84-23.09 161.28-22.5 161.74-21.51 162.2-20.52 162.62-19.38 163.04-18.24 163.32-17.12 163.61-16 163.61-15.34L163.61-15.34Q163.61-14.33 164.82-14.19 166.03-14.06 166.9-14.94L166.9-14.94Q166.95-14.99 167.04-15.07L167.04-15.07Q167.65-15.69 167.78-15.38L167.78-15.38Q168-14.85 168.05-7.87L168.05-7.87Q168.05-7.25 168.05-6.9L168.05-6.9Q168.09 0.22 168.31 1.32L168.31 1.32Q168.57 2.72 169.67 2.94L169.67 2.94Q170.07 3.03 172.62 3.03L172.62 3.03Q175.17 3.03 176.31 2.77 177.45 2.5 177.98 1.76L177.98 1.76Q178.33 1.19 178.26 0.44 178.2-0.31 177.71-0.66L177.71-0.66Q177.23-1.05 177.08-1.65 176.92-2.24 176.88-4.44L176.88-4.44Q176.7-7.21 176.62-7.21L176.62-7.21Q176.4-7.21 175.96-4.97L175.96-4.97Q175.39-2.11 174.64-1.25 173.89-0.4 172.57-1.14L172.57-1.14Q172.53-1.19 172.44-1.19L172.44-1.19Q171.96-1.36 171.91-13.93L171.91-13.93Q171.91-15.69 171.91-16.66L171.91-16.66Q171.91-18.28 171.91-21.05L171.91-21.05Q171.91-29.79 172.02-31.29 172.13-32.78 172.79-33L172.79-33Q172.97-33.05 173.06-33.09L173.06-33.09Q173.5-33.31 173.61-33.49 173.72-33.66 173.54-33.93 173.36-34.19 172.75-34.8L172.75-34.8Q170.99-36.56 170.27-36.87 169.54-37.18 168.97-36.43L168.97-36.43Q167.87-35.11 167.52-34.89L167.52-34.89Q166.6-34.63 163.65-34.63L163.65-34.63Q161.1-34.67 160.38-34.78 159.65-34.89 157.98-35.64L157.98-35.64Q156.05-36.43 155.83-36.39 155.61-36.34 155.74-35.11L155.74-35.11Q156.05-31.68 156.01-21.8L156.01-21.8Q156.01-13.45 155.87-12.48L155.87-12.48Q155.39-7.12 154.12-3.65 152.84-0.18 150.25 3.03L150.25 3.03Q150.03 3.34 150.21 3.52ZM167.87-18.85L167.87-18.85Q167.65-18.33 167.43-18.54L167.43-18.54Q167.17-18.81 166.25-20.35L166.25-20.35Q165.5-21.49 163.45-23.12 161.41-24.74 160.44-24.92L160.44-24.92Q160.05-25 159.96-25.58 159.87-26.15 159.83-29L159.83-29Q159.83-29.44 159.83-30.19L159.83-30.19Q159.79-32.61 160.16-33.02 160.53-33.44 162.73-33.4L162.73-33.4 162.86-33.4Q163.52-33.4 163.92-33.4L163.92-33.4Q166.68-33.4 167.21-33.29 167.74-33.18 167.92-32.56L167.92-32.56Q168.09-32.08 168.05-25.66 168-19.25 167.87-18.85Z" transform="translate(-2.853749990463257, 37.865238189697266)"></path></g> <!----> <!----> <!----> <!----> <!----> <!----> <!----></g></g> <g data-gra="path-slogan" fill-rule="" class="tp-slogan iconsvg-slogansvg" fill="#262261" transform="translate(34.623958587646484,47.73945236206055)"><!----> <!----> <g transform="scale(1, 1)"><g transform="scale(1)"><path d="M8.06-6.05L8.06-6.05L6.94-6.05Q6.52-7.78 4.55-7.83L4.55-7.83Q1.83-7.69 1.73-4.36L1.73-4.36Q1.73-0.80 4.59-0.80L4.59-0.80Q6.56-0.84 7.03-3.19L7.03-3.19L8.16-3.19Q7.64 0.05 4.36 0.14L4.36 0.14Q0.61 0 0.52-4.31L0.52-4.31Q0.70-8.63 4.55-8.81L4.55-8.81Q7.59-8.72 8.06-6.05ZM10.69-5.06L15.19-5.06L15.19-8.58L16.36-8.58L16.36 0L15.19 0L15.19-3.98L10.69-3.98L10.69 0L9.52 0L9.52-8.58L10.69-8.58L10.69-5.06ZM23.81 0L22.97-2.48L19.50-2.48L18.61 0L17.44 0L20.67-8.58L21.98-8.58L25.08 0L23.81 0ZM21.23-7.31L19.88-3.52L22.55-3.52L21.28-7.31L21.23-7.31ZM27.52-8.58L31.83-1.64L31.83-8.58L32.95-8.58L32.95 0L31.64 0L27.28-6.94L27.23-6.94L27.23 0L26.11 0L26.11-8.58L27.52-8.58ZM41.16-3.61L38.53-3.61L38.53-4.59L42.28-4.59L42.28 0L41.53 0L41.25-1.08Q40.27 0.09 38.44 0.14L38.44 0.14Q36.70 0.14 35.77-0.75L35.77-0.75Q34.36-2.06 34.41-4.36L34.41-4.36Q34.73-8.63 38.48-8.81L38.48-8.81Q41.67-8.63 42.14-6L42.14-6L41.02-6Q40.55-7.78 38.44-7.83L38.44-7.83Q35.77-7.64 35.63-4.31L35.63-4.31Q35.63-0.75 38.48-0.75L38.48-0.75Q39.52-0.75 40.27-1.31L40.27-1.31Q41.20-2.06 41.16-3.61L41.16-3.61ZM50.34-6.09L50.34-6.09L49.27-6.09Q49.17-7.73 47.11-7.83L47.11-7.83Q45.19-7.78 45.19-6.33L45.19-6.33Q45.19-5.39 46.22-5.25L46.22-5.25L48.66-4.69Q50.58-4.22 50.58-2.34L50.58-2.34Q50.53 0.05 47.20 0.14L47.20 0.14Q45.38 0.14 44.63-0.61L44.63-0.61Q43.69-1.31 43.73-2.77L43.73-2.77L44.86-2.77Q44.91-0.80 47.20-0.75L47.20-0.75Q49.45-0.80 49.50-2.20L49.50-2.20Q49.69-3.38 47.63-3.75L47.63-3.75L45.84-4.13Q44.02-4.64 44.02-6.19L44.02-6.19Q44.16-8.72 47.02-8.81L47.02-8.81Q50.25-8.81 50.34-6.09ZM53.20-5.06L57.70-5.06L57.70-8.58L58.88-8.58L58.88 0L57.70 0L57.70-3.98L53.20-3.98L53.20 0L52.03 0L52.03-8.58L53.20-8.58L53.20-5.06ZM66.33 0L65.48-2.48L62.02-2.48L61.13 0L59.95 0L63.19-8.58L64.50-8.58L67.59 0L66.33 0ZM63.75-7.31L62.39-3.52L65.06-3.52L63.80-7.31L63.75-7.31ZM76.97-1.08L76.08-1.78L76.69-2.48L77.77-1.64Q78.75-2.63 78.75-4.27L78.75-4.27Q78.56-7.64 75.75-7.83L75.75-7.83Q72.89-7.69 72.75-4.27L72.75-4.27Q72.89-0.94 75.75-0.80L75.75-0.80Q76.45-0.80 76.97-1.08L76.97-1.08ZM78.70-0.94L79.83-0.05L79.27 0.56L77.95-0.33Q77.11 0.14 75.75 0.14L75.75 0.14Q71.81 0 71.53-4.27L71.53-4.27Q71.77-8.72 75.75-8.81L75.75-8.81Q79.64-8.67 79.92-4.27L79.92-4.27Q79.88-2.20 78.70-0.94L78.70-0.94ZM81.47-8.58L82.64-8.58L82.64 0L81.47 0L81.47-8.58ZM90.14-3.89L85.92-3.89L85.92 0L84.75 0L84.75-8.58L90.70-8.58L90.70-7.59L85.92-7.59L85.92-4.92L90.14-4.92L90.14-3.89ZM97.55 0L96.70-2.48L93.23-2.48L92.34 0L91.17 0L94.41-8.58L95.72-8.58L98.81 0L97.55 0ZM94.97-7.31L93.61-3.52L96.28-3.52L95.02-7.31L94.97-7.31ZM101.25-8.58L105.56-1.64L105.56-8.58L106.69-8.58L106.69 0L105.38 0L101.02-6.94L100.97-6.94L100.97 0L99.84 0L99.84-8.58L101.25-8.58Z" transform="translate(-0.515625, 8.8125)"></path></g></g></g></g></g><defs v-gra="od"></defs></svg>